<svg preserveAspectRatio="none" width="100%" height="100%" overflow="visible" style="display: block;" viewBox="0 0 171 176" fill="none" xmlns="http://www.w3.org/2000/svg">
<path id="Vector" d="M11.3427 70.9221C2.85621 58.1948 2.64231 45.281 11.3369 33.205C20.0285 21.1348 31.9142 15.4769 47.4129 19.2096C53.1823 20.5982 58.3534 19.617 62.4463 13.7813C70.4414 2.37951 82.0784 -1.60565 95.7937 0.569121C111.457 3.05375 122.016 12.4185 126.661 26.8586C129.211 34.7802 133.341 38.7998 140.842 39.7035C151.817 41.0262 158.286 48.2964 163.393 56.6111C180.239 84.0367 168.796 122.947 132.136 129.701C130.26 130.045 128.112 132.553 127.352 134.533C125.493 139.37 124.843 144.678 122.866 149.455C118.582 159.804 109.948 165.725 100.398 171.088C78.1532 183.583 52.6042 171.231 48.098 145.464C47.6471 142.89 47.0892 140.334 46.4909 137.327C29.252 137.588 12.6896 136.002 3.83609 118.05C-4.69082 100.766 2.41685 85.9188 11.3369 70.9278L11.3427 70.9221ZM19.4505 78.7748C13.1059 87.6632 9.5072 97.7452 11.5276 109.219C14.077 123.696 31.4691 128.76 46.5371 125.796C48.4757 116.3 51.7833 108.705 56.4601 103.013C62.4521 95.7196 71.9329 93.9896 78.5058 98.9875C84.8822 103.836 86.1598 114.001 79.6996 120.727C74.6557 125.977 67.6578 129.36 61.6167 133.695C60.1917 134.719 58.1511 136.145 58.0297 137.528C56.5064 155.176 72.3866 168.669 89.5098 164.641C104 161.232 120.392 143.47 116.342 129.756C114.388 129.277 112.353 128.938 110.425 128.275C101.601 125.251 94.1664 120.517 90.6921 111.376C87.816 103.813 89.8885 95.952 95.5336 92.1821C101.237 88.3748 109.073 88.8912 114.75 94.2851C118.079 97.4497 120.921 101.372 123.089 105.426C125.337 109.632 126.502 114.403 128.135 118.911C146.007 118.652 157.789 103.868 159.824 87.9243C161.76 72.7497 156.612 53.5612 129.737 45.3728C129.338 47.2492 128.994 49.0797 128.552 50.8844C126.557 59.0699 122.797 66.1393 115.137 70.4171C110.561 72.9706 105.645 73.4985 101.26 70.1073C96.7852 66.6471 95.5394 61.8443 97.028 56.4332C99.4357 47.6911 105.439 42.1824 113.752 39.2416C117.961 37.7525 119.134 35.9364 117.365 31.6758C110.57 15.3306 103.662 10.0945 86.0095 10.9007C75.3725 11.3856 70.8894 18.4522 65.9033 25.8028C72.8405 32.1808 78.1936 38.7424 78.9885 47.8546C79.4799 53.4924 78.341 58.4846 72.5832 61.1155C67.8977 63.2587 61.3942 61.236 57.2724 56.3242C52.2863 50.3823 50.6416 43.5022 51.3324 35.8216C51.5087 33.8592 50.685 30.5827 49.3178 29.9056C40.9701 25.7655 21.6154 31.1708 18.2914 39.5056C15.4529 46.6209 14.0481 54.858 19.1296 62.6964C21.3928 61.1557 23.2139 59.3252 25.4106 58.5448C30.6886 56.6713 36.062 54.5051 41.5539 53.9285C47.0256 53.3546 51.2833 56.7086 53.454 61.9045C55.6161 67.0832 54.5293 71.8115 50.948 76.0922C46.6961 81.1733 41.3574 83.6035 34.7411 82.3784C29.966 81.4947 25.2747 80.1634 19.4533 78.7691L19.4505 78.7748ZM114.365 119.731C115.29 118.922 116.215 118.113 117.137 117.301C114.293 112.573 111.787 107.589 108.428 103.257C107.234 101.719 103.971 101.759 101.656 101.079C101.552 103.687 100.303 107.317 101.56 108.714C105.298 112.857 110.026 116.122 114.365 119.731ZM58.1395 122.749C58.6916 123.214 59.2437 123.676 59.7957 124.141C63.8424 120.615 68.1319 117.315 71.7681 113.413C72.7451 112.366 71.7392 109.494 71.6467 107.46C69.7476 107.58 67.4555 107.061 66.0247 107.936C60.5068 111.305 59.235 117.043 58.1395 122.749ZM28.3531 68.6899C28.5815 69.6999 28.8127 70.7098 29.041 71.7197C32.9461 71.1803 36.9205 70.902 40.7186 69.938C41.8661 69.6482 42.5223 67.4562 43.4038 66.1364C41.8517 65.5741 40.0856 64.24 38.7906 64.5957C35.2064 65.5827 31.8188 67.2755 28.3531 68.6871V68.6899ZM107.604 61.1471C108.168 61.5947 108.732 62.0451 109.295 62.4927C112.368 58.5133 115.437 54.5367 118.51 50.5573C109.674 51.55 108.162 53.3202 107.604 61.1471ZM63.6632 37.6923C62.7325 38.005 61.8017 38.3149 60.8739 38.6276C62.6573 42.8567 64.4407 47.0857 66.2242 51.3147C67.1607 50.9188 68.1001 50.5228 69.0366 50.1269C67.2445 45.9839 65.4524 41.8381 63.6632 37.6952V37.6923Z" fill="var(--fill-0, #C9C9E6)"/>
</svg>
